<svg xmlns="http://www.w3.org/2000/svg" width="102.72" height="54.97" viewBox="0 0 102.72 54.97">
  <defs>
    <style>
      .cls-1, .cls-2, .cls-3, .cls-4 {
        fill: #fff;
      }

      .cls-1 {
        fill-rule: evenodd;
      }

      .cls-2 {
        font-size: 27px;
      }

      .cls-2, .cls-3 {
        text-anchor: middle;
        font-family: Montserrat;
        font-weight: 700;
      }

      .cls-3 {
        font-size: 28px;
      }
    </style>
  </defs>
  <path id="Subtraction_5" data-name="Subtraction 5" class="cls-1" d="M6522,9873.13v-3.88a6.294,6.294,0,0,0,0-12.49v-3.88a10.953,10.953,0,0,1,7.24,3.05,10.181,10.181,0,0,1,0,14.15,10.953,10.953,0,0,1-7.24,3.05h0Zm40.2-.1a9,9,0,0,1-6.25-2.2,7.452,7.452,0,0,1-2.35-5.56,7.626,7.626,0,0,1,2.3-5.57,8.207,8.207,0,0,1,5.74-2.18,7.977,7.977,0,0,1,5.58,2.09,7.666,7.666,0,0,1,2.26,5.72c0,0.24-.03.55-0.06,0.85-0.01.11-.02,0.22-0.03,0.32H6558c0.42,1.9,2.03,3.03,4.31,3.03a5.1,5.1,0,0,0,3.78-1.46l2.32,2.52A7.822,7.822,0,0,1,6562.2,9873.03Zm-0.53-12.21a3.569,3.569,0,0,0-3.73,3.14h7.42A3.594,3.594,0,0,0,6561.67,9860.82Zm-22.1,11.99h0l-4.36-.01v-15.06h4.17v1.76a6.607,6.607,0,0,1,4.98-1.98,6.189,6.189,0,0,1,4.46,1.61,6.765,6.765,0,0,1,1.79,5.05v8.62h-4.37v-7.95a3.965,3.965,0,0,0-.8-2.69,2.88,2.88,0,0,0-2.25-.86c-2.3,0-3.62,1.48-3.62,4.06v7.45Z" transform="translate(-6516.28 -9818.16)"/>
  <path id="Subtraction_6" data-name="Subtraction 6" class="cls-1" d="M6524.86,9839.51h-2.28v-3.59h2.07c3.77,0,6.21-2.3,6.21-5.86s-2.44-5.86-6.21-5.86h-2.07v-3.25h-6.3v-0.34h8.58a11.046,11.046,0,0,1,7.53,2.57,9.6,9.6,0,0,1,0,13.75A11.051,11.051,0,0,1,6524.86,9839.51Z" transform="translate(-6516.28 -9818.16)"/>
  <text id="g" class="cls-2" x="41.457" y="22.123">g</text>
  <text id="tal" class="cls-3" x="84.968" y="23.885">tal</text>
  <path class="cls-1" d="M6572.5,9827.29h4.8v15.42h-4.8v-15.42Z" transform="translate(-6516.28 -9818.16)"/>
  <path class="cls-1" d="M6541.29,9818.16h3.48v2.75h-3.48v-2.75Z" transform="translate(-6516.28 -9818.16)"/>
  <rect class="cls-4" x="30.88" width="30.18" height="2.75"/>
  <path id="Path_38" data-name="Path 38" class="cls-1" d="M6540.35,9827.02h4.3v15.41h-4.3v-15.41Z" transform="translate(-6516.28 -9818.16)"/>
</svg>
